<svg display="none" xmlns="http://www.w3.org/2000/svg">
    <!-- file -->
    <symbol id="file" xmlns="http://www.w3.org/2000/svg" viewBox="0 0 20 17">
        <rect y="2" width="20" height="15"/>
        <rect x="13" width="7" height="4"/>
    </symbol>
    <!-- close -->
    <symbol id="close" viewBox="0 0 24 24"  xmlns="http://www.w3.org/2000/svg">
        <path d="M21 3L3 21" stroke-width="2" stroke-linecap="round" stroke-linejoin="round"/>
        <path d="M3 3L21 21" stroke-width="2" stroke-linecap="round" stroke-linejoin="round"/>
    </symbol>
    <!-- checkboxBefore -->
    <symbol id="checkboxBefore" xmlns="http://www.w3.org/2000/svg" viewBox="0 0 26 26" fill="none">
        <rect x="1" y="1" width="24" height="24" rx="7" stroke="#E8D29F" stroke-width="2"/>
    </symbol>
    <!-- checkboxAfter -->
    <symbol id="checkboxAfter" viewBox="0 0 26 26" fill="none" xmlns="http://www.w3.org/2000/svg">
        <rect width="26" height="26" rx="8" fill="#E8D29F"/>
        <path d="M20 8L10.375 18L6 13.4545" stroke="white" stroke-width="2" stroke-linecap="round" stroke-linejoin="round"/>
    </symbol>
    <!-- radioBefore -->
    <symbol id="radioBefore" xmlns="http://www.w3.org/2000/svg" viewBox="0 0 26 26" fill="none">
        <rect x="1" y="1" width="24" height="24" rx="12" fill="white"/>
        <rect x="1" y="1" width="24" height="24" rx="12" stroke="#E8D29F" stroke-width="2"/>
    </symbol>
    <!-- radioAfter -->
    <symbol id="radioAfter" xmlns="http://www.w3.org/2000/svg" viewBox="0 0 26 26" fill="none">
        <circle cx="13" cy="13" r="7" fill="#E8D29F"/>
        <rect x="1" y="1" width="24" height="24" rx="12" stroke="#E8D29F" stroke-width="2"/>
    </symbol>
    <!-- eye -->
    <symbol id="eye" viewBox="0 0 24 24" xmlns="http://www.w3.org/2000/svg">
        <path d="M3 12C3 12 5.7 6 12 6C18.3 6 21 12 21 12C21 12 18.3 18 12 18C5.7 18 3 12 3 12Z" stroke-width="2" stroke-linecap="round" stroke-linejoin="round"/>
        <path d="M12 14C13.1046 14 14 13.1046 14 12C14 10.8954 13.1046 10 12 10C10.8954 10 10 10.8954 10 12C10 13.1046 10.8954 14 12 14Z"  stroke-width="2" stroke-linecap="round" stroke-linejoin="round"/>
    </symbol>
    <!-- search -->
    <symbol id="search" xmlns="http://www.w3.org/2000/svg" viewBox="0 0 20 20">
        <path d="M9 15C12.3137 15 15 12.3137 15 9C15 5.68629 12.3137 3 9 3C5.68629 3 3 5.68629 3 9C3 12.3137 5.68629 15 9 15Z" stroke-width="2" stroke-linecap="round" stroke-linejoin="round"/>
        <path d="M17 17L14 14" stroke-width="2" stroke-linecap="round" stroke-linejoin="round"/>
    </symbol>
    <!-- date -->
    <symbol id="date" xmlns="http://www.w3.org/2000/svg" viewBox="0 0 24 24">
        <path d="M19 5H5C3.89543 5 3 5.79594 3 6.77778V19.2222C3 20.2041 3.89543 21 5 21H19C20.1046 21 21 20.2041 21 19.2222V6.77778C21 5.79594 20.1046 5 19 5Z" stroke-width="2" stroke-linecap="round" stroke-linejoin="round"/>
        <path d="M16 3V7" stroke-width="2" stroke-linecap="round" stroke-linejoin="round"/>
        <path d="M8 3V7" stroke-width="2" stroke-linecap="round" stroke-linejoin="round"/>
        <path d="M3 11H21" stroke-width="2" stroke-linecap="round" stroke-linejoin="round"/>
    </symbol>
    <!-- arrowRight -->
    <symbol id="arrowRight" xmlns="http://www.w3.org/2000/svg" viewBox="0 0 32 32">
        <g id="Компонент_38_3"  transform="translate(0 32) rotate(-90)">
            <path id="Контур_26" d="M1885.022,916.11l7.133,8.122,6.952-8.122" transform="translate(-1876.522 -903.61)" fill="none" stroke="#fff" stroke-width="1"/>
            <g id="arrow-right" transform="translate(35.055 -2.056) rotate(90)">
                <g id="Эллипс_8" transform="translate(2.056 3.055)" fill="none" stroke="#fff" stroke-width="1">
                    <circle cx="16" cy="16" r="16" stroke="none"/>
                    <circle cx="16" cy="16" r="15.5" fill="none"/>
                </g>
            </g>
        </g>
    </symbol>
    <!-- arrowBottom -->
    <symbol id="arrowBottom" xmlns="http://www.w3.org/2000/svg" viewBox="0 0 8 4.279">
        <path id="Icon_metro-chevron-thin-down" d="M12.18,10.749a.324.324,0,0,1,.455,0,.316.316,0,0,1,0,.451L8.957,14.841a.324.324,0,0,1-.455,0L4.823,11.2a.317.317,0,0,1,0-.451.324.324,0,0,1,.455,0L8.729,14.07Z" transform="translate(-4.729 -10.655)" fill="#fff"/>
    </symbol>



     <!-- star -->
    <symbol id="star" xmlns="http://www.w3.org/2000/svg" viewBox="0 0 8 8" fill="none">
        <path d="M4.18268 8H3.76693C3.41417 8 3.2 7.83673 3.12441 7.5102L2.68346 5.91523C2.60787 5.58032 2.4021 5.3752 2.06614 5.29984L0.491339 4.89796C0.16378 4.82261 0 4.60492 0 4.2449V3.78022C0 3.42857 0.16378 3.21507 0.491339 3.13972L2.06614 2.70016C2.4021 2.6248 2.60787 2.41968 2.68346 2.08477L3.12441 0.489796C3.2 0.163265 3.41417 0 3.76693 0H4.18268C4.53543 0 4.74961 0.163265 4.8252 0.489796L5.26614 2.08477C5.34173 2.41968 5.54751 2.6248 5.88346 2.70016L7.50866 3.13972C7.83622 3.21507 8 3.42857 8 3.78022V4.2449C8 4.60492 7.83622 4.82261 7.50866 4.89796L5.88346 5.29984C5.54751 5.3752 5.34173 5.58032 5.26614 5.91523L4.8252 7.5102C4.74961 7.83673 4.53543 8 4.18268 8ZM4.25827 2.57457H3.74173C3.42257 2.57457 3.14541 2.69178 2.91024 2.92622C2.67507 3.16065 2.55748 3.43694 2.55748 3.7551V4.27002C2.55748 4.59655 2.67087 4.87284 2.89764 5.0989C3.13281 5.32496 3.41417 5.43799 3.74173 5.43799H4.25827C4.58583 5.43799 4.86299 5.32496 5.08976 5.0989C5.32493 4.87284 5.44252 4.59655 5.44252 4.27002V3.7551C5.44252 3.43694 5.32493 3.16065 5.08976 2.92622C4.85459 2.69178 4.57743 2.57457 4.25827 2.57457Z" fill="#8533FF"/>
    </symbol>




<!-- socials__ico01 -->
    <symbol id="socials__ico01" xmlns="http://www.w3.org/2000/svg" viewBox="0 0 32 32">
        <path fill-rule="evenodd" clip-rule="evenodd" d="M25.2063 26.0982L25.2072 26.0959L25.2304 26.0379L29.2288 5.87916V5.81369C29.2288 5.31142 29.0432 4.87294 28.6393 4.60992C28.2859 4.37971 27.8795 4.36331 27.5946 4.38494C27.2932 4.40781 27.0091 4.48303 26.8123 4.54565C26.7111 4.57786 26.6264 4.6089 26.5659 4.63237C26.5355 4.64416 26.5108 4.65415 26.4929 4.6616L26.4753 4.66901L4.1822 13.4143L4.17606 13.4165C4.16402 13.4208 4.1481 13.4268 4.12887 13.4343C4.09053 13.4492 4.03834 13.4705 3.97704 13.4983C3.85666 13.5529 3.69035 13.6371 3.52168 13.7526C3.23521 13.9488 2.68972 14.4132 2.78183 15.1495C2.85813 15.7594 3.27853 16.1467 3.56195 16.3472C3.71389 16.4547 3.85924 16.5323 3.96567 16.5829C4.0196 16.6086 4.06542 16.6283 4.09953 16.6422C4.11664 16.6491 4.13094 16.6547 4.142 16.6589L4.15617 16.6642L4.16523 16.6675L8.06555 17.9806C8.05238 18.2253 8.07665 18.4748 8.14155 18.721L10.0953 26.1322C10.3269 27.011 11.1219 27.6231 12.0306 27.6224C12.8452 27.6218 13.5676 27.1291 13.8746 26.3938L16.9248 23.1324L22.1634 27.1487L22.2379 27.1812C22.7139 27.3889 23.1586 27.4547 23.5651 27.3992C23.9711 27.3437 24.2938 27.1735 24.5361 26.9796C24.7746 26.7888 24.938 26.5734 25.0408 26.4113C25.093 26.329 25.132 26.2565 25.159 26.2021C25.1725 26.1747 25.1832 26.1515 25.1912 26.1335L25.2013 26.1103L25.2048 26.1017L25.2063 26.0982ZM10.0754 18.2112C10.031 18.0428 10.1007 17.865 10.2478 17.7716L23.4771 9.37035C23.4771 9.37035 24.2552 8.89796 24.2274 9.37035C24.2274 9.37035 24.3663 9.45378 23.9493 9.84275C23.5538 10.2122 14.5204 18.9336 13.6064 19.8161C13.5536 19.867 13.5221 19.9255 13.5035 19.9964L12.0291 25.6224L10.0754 18.2112Z"/>
    </symbol>

<!-- socials__ico02 -->
    <symbol id="socials__ico02" xmlns="http://www.w3.org/2000/svg" viewBox="0 0 32 32">
        <path d="M16.3252 5.3335C17.0372 5.3375 18.8185 5.35483 20.7118 5.43083L21.3838 5.46016C23.2892 5.5495 25.1932 5.70416 26.1385 5.96683C27.3985 6.3215 28.3878 7.3535 28.7225 8.66283C29.2558 10.7428 29.3225 14.7988 29.3305 15.7815L29.3318 15.9842V16.2162C29.3225 17.1988 29.2558 21.2562 28.7225 23.3348C28.3838 24.6482 27.3932 25.6815 26.1385 26.0308C25.1932 26.2935 23.2892 26.4482 21.3838 26.5375L20.7118 26.5682C18.8185 26.6428 17.0372 26.6615 16.3252 26.6642L16.0118 26.6655H15.6718C14.1652 26.6562 7.86384 26.5882 5.8585 26.0308C4.59984 25.6762 3.60917 24.6442 3.2745 23.3348C2.74117 21.2548 2.6745 17.1988 2.6665 16.2162V15.7815C2.6745 14.7988 2.74117 10.7415 3.2745 8.66283C3.61317 7.3495 4.60384 6.31616 5.85984 5.96816C7.86384 5.4095 14.1665 5.3415 15.6732 5.3335H16.3252ZM13.3318 11.3335V20.6668L21.3318 16.0002L13.3318 11.3335Z"/>
    </symbol>

<!-- socials__ico03 -->
    <symbol id="socials__ico03" xmlns="http://www.w3.org/2000/svg" viewBox="0 0 32 32">
        <path d="M18.9996 3.8335C17.3641 3.8335 15.7956 4.4832 14.6391 5.63967C13.4826 6.79615 12.8329 8.36466 12.8329 10.0002V13.4335H9.53291C9.36722 13.4335 9.23291 13.5678 9.23291 13.7335V18.2668C9.23291 18.4325 9.36722 18.5668 9.53291 18.5668H12.8329V27.8668C12.8329 28.0325 12.9672 28.1668 13.1329 28.1668H17.6662C17.8319 28.1668 17.9662 28.0325 17.9662 27.8668V18.5668H21.2955C21.4331 18.5668 21.5531 18.4731 21.5865 18.3396L22.7198 13.8063C22.7672 13.6169 22.624 13.4335 22.4288 13.4335H17.9662V10.0002C17.9662 9.72611 18.0751 9.46327 18.2689 9.26949C18.4627 9.0757 18.7255 8.96683 18.9996 8.96683H22.4662C22.6319 8.96683 22.7662 8.83251 22.7662 8.66683V4.1335C22.7662 3.96781 22.6319 3.8335 22.4662 3.8335H18.9996Z"/>
    </symbol>


<!-- socials__ico04 -->
    <symbol id="socials__ico04" xmlns="http://www.w3.org/2000/svg" viewBox="0 0 84 24">
<path d="M9.03121 5.07955C6.80654 5.07955 5.69421 5.79545 5.69421 7.22727C5.69421 7.86364 5.96974 8.35085 6.5208 8.68892C7.07187 9.02699 8.36279 9.5142 10.3936 10.1506C12.4243 10.7869 13.8479 11.5078 14.6643 12.3132C15.4807 13.1186 15.8889 14.3565 15.8889 16.027C15.8889 18.1548 15.2256 19.7656 13.8989 20.8594C12.5723 21.9531 10.8375 22.5 8.69444 22.5C7.10248 22.5 5.15335 22.2614 2.84704 21.7841L1.74492 21.5753L2.17352 18.3835C4.90843 18.7415 7.00043 18.9205 8.44953 18.9205C10.613 18.9205 11.6947 18.0455 11.6947 16.2955C11.6947 15.6591 11.4447 15.1619 10.9446 14.804C10.4446 14.446 9.44961 14.0582 7.95969 13.6406C5.59216 12.9844 3.92366 12.2038 2.9542 11.299C1.98473 10.3942 1.5 9.13636 1.5 7.52557C1.5 5.49716 2.1327 3.9858 3.39811 2.99148C4.66351 1.99716 6.39834 1.5 8.6026 1.5C10.1129 1.5 12.0314 1.69886 14.3582 2.09659L15.4603 2.3054L15.1235 5.55682C12.2457 5.23864 10.215 5.07955 9.03121 5.07955Z"/>
<path d="M23.6665 22.4999C26.1824 22.4999 27.9781 21.8221 29.0535 20.4664C30.1288 19.1107 30.6665 17.2059 30.6665 14.7518C30.6665 9.54682 28.3332 6.94434 23.6665 6.94434C18.9998 6.94434 16.6665 9.54682 16.6665 14.7518C16.6665 17.2059 17.2042 19.1107 18.2795 20.4664C19.3549 21.8221 21.1506 22.4999 23.6665 22.4999ZM23.6665 10.3286C24.7419 10.3286 25.4875 10.6848 25.9035 11.3973C26.3194 12.1097 26.5274 13.2279 26.5274 14.7518C26.5274 16.2757 26.3194 17.384 25.9035 18.0767C25.4875 18.7693 24.7419 19.1157 23.6665 19.1157C22.5911 19.1157 21.8455 18.7693 21.4295 18.0767C21.0136 17.384 20.8056 16.2757 20.8056 14.7518C20.8056 13.2279 21.0136 12.1097 21.4295 11.3973C21.8455 10.6848 22.5911 10.3286 23.6665 10.3286Z"/>
<path d="M31.9254 18.4549C34.4106 18.7721 36.1493 18.9307 37.1414 18.9307C38.1335 18.9307 38.7749 18.8415 39.0655 18.6631C39.3561 18.4846 39.5014 18.202 39.5014 17.8154C39.5014 17.4287 39.306 17.161 38.9152 17.0123C38.5243 16.8636 37.5222 16.6455 35.9088 16.358C34.2954 16.0705 33.1479 15.5995 32.4665 14.9452C31.7851 14.2908 31.4443 13.23 31.4443 11.7627C31.4443 8.55045 33.4586 6.94434 37.4871 6.94434C38.8099 6.94434 40.4133 7.12279 42.2973 7.47971L43.2594 7.65817L43.1391 10.9894C40.6539 10.6721 38.9252 10.5135 37.9531 10.5135C36.9811 10.5135 36.3197 10.6077 35.9689 10.796C35.6182 10.9844 35.4428 11.267 35.4428 11.6437C35.4428 12.0205 35.6282 12.2981 35.999 12.4765C36.3698 12.655 37.3318 12.8731 38.8851 13.1309C40.4384 13.3886 41.5959 13.8249 42.3575 14.4396C43.1191 15.0542 43.4999 16.1498 43.4999 17.7262C43.4999 19.3025 42.9587 20.4922 41.8765 21.2953C40.7942 22.0984 39.4012 22.4999 37.6976 22.4999C36.5151 22.4999 34.9017 22.3115 32.8573 21.9348L31.8652 21.7563L31.9254 18.4549Z"/>
<path d="M53.9704 10.6124H50.3489V16.7355C50.3489 17.3328 50.3637 17.756 50.3931 18.0049C50.4226 18.2538 50.5305 18.4679 50.717 18.6471C50.9034 18.8263 51.193 18.9159 51.5855 18.9159L53.8232 18.8561L53.9998 22.0521C52.6847 22.3508 51.6837 22.5001 50.9967 22.5001C49.2301 22.5001 48.023 22.0969 47.3752 21.2904C46.7275 20.484 46.4036 18.9955 46.4036 16.8251V10.6124H44.6665V7.2074H46.4036V3.05566H50.3489V7.2074H53.9704V10.6124Z"/>
<path d="M67.3886 11.9316V18.1063C67.429 18.5813 67.5098 18.9128 67.6311 19.1008C67.7523 19.2888 68.005 19.4224 68.3889 19.5016L68.2677 22.4999C67.237 22.4999 66.4135 22.4306 65.7971 22.2921C65.1807 22.1536 64.5592 21.8765 63.9327 21.4609C62.4777 22.1536 60.9923 22.4999 59.4765 22.4999C56.3441 22.4999 54.7778 20.877 54.7778 17.6314C54.7778 16.0481 55.2123 14.925 56.0813 14.262C56.9504 13.599 58.2842 13.2081 60.0828 13.0894L63.3265 12.8519V11.9316C63.3265 11.3181 63.185 10.8975 62.9021 10.67C62.6191 10.4424 62.1644 10.3286 61.5379 10.3286L55.8388 10.566L55.7176 7.80523C57.88 7.2313 59.9363 6.94434 61.8865 6.94434C63.8367 6.94434 65.2413 7.34015 66.1002 8.13178C66.9591 8.92341 67.3886 10.19 67.3886 11.9316ZM60.5679 15.8502C59.4361 15.9491 58.8703 16.5429 58.8703 17.6314C58.8703 18.7199 59.3654 19.2641 60.3557 19.2641C61.1236 19.2641 61.9623 19.1454 62.8717 18.9079L63.3265 18.7891V15.6127L60.5679 15.8502Z"/>
<path d="M82.3889 7.72217H78.0845L75.6249 19.1306H74.764L72.1814 7.72217H68L71.6895 22.4999H78.6994L82.3889 7.72217Z"/>
</symbol>


<!-- socials__ico05 -->
    <symbol id="socials__ico05" xmlns="http://www.w3.org/2000/svg" viewBox="0 0 42 24">
<path d="M2.47168 14.3698H4.09379L3.44582 5.33545H3.24005L2.47168 14.3698Z"/>
<path d="M10.7623 18.4304C10.7623 19.7876 10.3792 19.9934 9.58235 19.9934H8.84463V4.00869H9.58235C10.3792 4.00869 10.7623 4.21447 10.7623 5.5717V18.4304ZM9.49478 1.5H5.74707L8.13536 22.4999H10.1734C12.5923 22.4999 13.8905 20.7005 13.8905 18.6953V6.24813C13.8905 2.5639 12.5923 1.50219 9.49478 1.5Z"/>
<path d="M2.17643 17.1123L1.5 22.4996H4.97846L4.38959 17.1123H2.17643Z"/>
<path d="M24.6473 5.33545L23.8789 14.372L25.501 14.3698L24.853 5.33545H24.6473Z"/>
<path d="M24.6473 5.33545L23.8789 14.372L25.501 14.3698L24.853 5.33545H24.6473Z"/>
<path d="M16.9043 4.00879V11.942C17.8193 11.942 18.8219 11.8238 18.8219 10.9985V6.01399C18.8219 4.0679 18.1718 4.00879 16.9043 4.00879Z"/>
<path d="M24.6473 5.33545L23.8789 14.372L25.501 14.3698L24.853 5.33545H24.6473Z"/>
<path d="M23.5858 17.1123L22.9072 22.4996H26.3857L25.7968 17.1123H23.5858Z"/>
<path d="M16.9043 14.4482V22.4996H20.0741L21.1424 13.1216C20.3302 14.1264 18.9117 14.4482 16.9043 14.4482Z"/>
<path d="M37.2454 16.8392V19.0523C37.2454 20.114 36.9214 20.3505 36.3019 20.3505C35.6539 20.3505 35.1876 20.114 35.1876 19.0545V15.6023C35.1876 13.4789 30.144 8.93658 30.144 7.43267V4.83642C30.144 3.77471 30.6081 3.53829 31.2582 3.53829C31.7354 3.53829 32.2017 3.77471 32.2017 4.83642V7.57934C32.2017 10.9987 37.2454 13.8883 37.2454 16.8392ZM40.2313 8.99349V4.56935C40.2313 3.24058 39.7256 2.36932 38.9835 1.82424C38.6946 1.6119 38.3443 1.50244 37.9853 1.50244H34.2682H33.0883H29.299C28.9137 1.50244 28.5328 1.61627 28.2263 1.85051C27.8454 2.13946 27.5324 2.51818 27.3179 3.00415L28.1869 10.6484C29.6777 12.8113 32.0616 14.8121 32.0616 16.8392V19.0501C32.0616 20.1119 31.7376 20.3483 31.1181 20.3483C30.4702 20.3483 30.144 20.1119 30.144 19.0501V14.4793H28.6226L29.0779 18.4897L29.5332 22.5001H32.865H34.4981H36.7288H37.7861C38.0794 22.5001 38.3684 22.4301 38.6245 22.2878C39.5549 21.769 40.2269 20.8452 40.2269 19.315V15.598C40.2269 13.4745 35.1833 8.9322 35.1833 7.4283V4.83204C35.1833 3.77033 35.6145 3.5361 36.2625 3.5361C36.7747 3.5361 37.206 3.77252 37.206 4.83423V8.99349H40.2313Z"/>
</symbol>


  <symbol id="icoLeft" xmlns="http://www.w3.org/2000/svg" viewBox="0 0 6 16" fill="none">
<path d="M2.33544 13.416C2.33544 13.6364 2.41983 13.8278 2.58861 13.9902C2.75738 14.1526 2.9563 14.2338 3.18535 14.2338H5.12929C5.24382 14.2338 5.33424 14.2657 5.40054 14.3295C5.46685 14.3933 5.5 14.4803 5.5 14.5905V15.6433C5.5 15.7535 5.46685 15.8405 5.40054 15.9043C5.33424 15.9681 5.24382 16 5.12929 16H4.55967C4.33665 16 4.12568 15.9159 3.92676 15.7477L2.58861 14.4861C2.37764 14.3063 2.17571 14.1932 1.98282 14.1468L0.852622 13.8423C0.617541 13.7901 0.5 13.6422 0.5 13.3986V2.60141C0.5 2.352 0.617541 2.2012 0.852622 2.14899L1.98282 1.85318C2.17571 1.80678 2.37764 1.69367 2.58861 1.51387L3.92676 0.243611C4.11965 0.0812036 4.33062 0 4.55967 0H5.12929C5.24382 0 5.33424 0.0319014 5.40054 0.0957042C5.46685 0.159507 5.5 0.246511 5.5 0.356716V1.40076C5.5 1.51097 5.46685 1.59797 5.40054 1.66177C5.33424 1.72558 5.24382 1.75748 5.12929 1.75748H3.18535C2.9563 1.75748 2.75738 1.84158 2.58861 2.00979C2.41983 2.17219 2.33544 2.3636 2.33544 2.58401V13.416Z" fill="#FF450A"/>
</symbol>

  <symbol id="icoRight" xmlns="http://www.w3.org/2000/svg" viewBox="0 0 6 16" fill="none">
<path d="M3.66456 2.58401C3.66456 2.3636 3.58017 2.1722 3.41139 2.00979C3.24262 1.84738 3.0437 1.76618 2.81465 1.76618H0.870705C0.756178 1.76618 0.665762 1.73428 0.599457 1.67047C0.533153 1.60667 0.5 1.51967 0.5 1.40946V0.356716C0.5 0.246511 0.533153 0.159508 0.599457 0.095705C0.665762 0.0319023 0.756178 0 0.870705 0H1.44033C1.66335 0 1.87432 0.0841045 2.07324 0.252312L3.41139 1.51387C3.62236 1.69367 3.82429 1.80678 4.01718 1.85318L5.14738 2.15769C5.38246 2.2099 5.5 2.3578 5.5 2.60141V13.3986C5.5 13.648 5.38246 13.7988 5.14738 13.851L4.01718 14.1468C3.82429 14.1932 3.62236 14.3063 3.41139 14.4861L2.07324 15.7564C1.88035 15.9188 1.66938 16 1.44033 16H0.870705C0.756178 16 0.665762 15.9681 0.599457 15.9043C0.533153 15.8405 0.5 15.7535 0.5 15.6433V14.5992C0.5 14.489 0.533153 14.402 0.599457 14.3382C0.665762 14.2744 0.756178 14.2425 0.870705 14.2425H2.81465C3.0437 14.2425 3.24262 14.1584 3.41139 13.9902C3.58017 13.8278 3.66456 13.6364 3.66456 13.416V2.58401Z" fill="#FF450A"/>
</symbol>


<symbol id="icoRightSecondary"  xmlns="http://www.w3.org/2000/svg" viewBox="0 0 14 32" fill="none">
<path d="M10.031 5.20283V12.5808C10.031 13.068 10.2543 13.3638 10.7008 13.4682L12.8303 14.0772C13.2768 14.1816 13.5 14.4774 13.5 14.9647V17.0353C13.5 17.5226 13.2768 17.8184 12.8303 17.9228L10.7008 18.5318C10.2543 18.6362 10.031 18.932 10.031 19.4192V26.7972C10.031 27.2844 9.80779 27.5802 9.36129 27.6846L7.21466 28.2936C6.83686 28.3864 6.4476 28.6127 6.0469 28.9723L3.52246 31.4954C3.14465 31.8318 2.74395 32 2.32034 32H1.2041C0.98657 32 0.814839 31.9362 0.688904 31.8086C0.562968 31.681 0.5 31.507 0.5 31.2866V29.1811C0.5 28.9607 0.562968 28.7867 0.688904 28.6591C0.814839 28.5314 0.98657 28.4676 1.2041 28.4676H4.93065C5.3657 28.4676 5.74351 28.3052 6.06407 27.9804C6.38463 27.6556 6.54491 27.2728 6.54491 26.832V19.4192C6.54491 19.1988 6.60788 19.0248 6.73382 18.8972C6.85975 18.7696 7.03148 18.7058 7.24901 18.7058H8.26222C8.70872 18.7058 9.11515 18.5434 9.48151 18.2186C9.84786 17.8938 10.031 17.511 10.031 17.0701V14.9299C10.031 14.489 9.84786 14.1062 9.48151 13.7814C9.11515 13.4566 8.70872 13.2942 8.26222 13.2942H7.24901C7.03148 13.2942 6.85975 13.2304 6.73382 13.1028C6.60788 12.9752 6.54491 12.8012 6.54491 12.5808V5.16803C6.54491 4.72721 6.38463 4.34439 6.06407 4.01958C5.74351 3.68316 5.3657 3.51495 4.93065 3.51495H1.2041C0.98657 3.51495 0.814839 3.45115 0.688904 3.32355C0.562968 3.19594 0.5 3.02193 0.5 2.80152V0.713431C0.5 0.493022 0.562968 0.319014 0.688904 0.191408C0.814839 0.0638028 0.98657 0 1.2041 0H2.32034C2.76684 0 3.16755 0.162407 3.52246 0.487221L6.0469 3.02773C6.4476 3.38735 6.83686 3.61356 7.21466 3.70636L9.36129 4.29799C9.80779 4.40239 10.031 4.70401 10.031 5.20283Z" fill="#FF450A"/>
</symbol>




<symbol id="news__ico01" 
                          xmlns="http://www.w3.org/2000/svg"
                          width="88"
                          height="24"
                          viewBox="0 0 88 24"
                          fill="none"
                        >
                          <path
                            d="M26.7051 3.86328H29.6067V19.8171H26.7051V18.5823C26.2177 19.0701 25.6389 19.4585 25.0012 19.7257C24.4168 19.9652 23.791 20.0894 23.1588 20.0914C22.4258 20.0959 21.7006 19.9429 21.0328 19.6431C20.3649 19.3432 19.7704 18.9036 19.2898 18.3543C18.7425 17.7813 18.3143 17.1069 18.0298 16.3696C17.7453 15.6323 17.61 14.8466 17.6316 14.0573C17.6316 12.2739 18.1382 10.8117 19.1977 9.66893C19.6806 9.12572 20.2767 8.69314 20.9447 8.40111C21.6127 8.10908 22.3367 7.96458 23.0665 7.9776C23.7481 7.9773 24.4224 8.11736 25.0467 8.38892C25.6893 8.6677 26.2688 9.07191 26.7508 9.5775V3.86328H26.7051ZM23.6192 10.6744C23.1953 10.6626 22.7739 10.7424 22.3842 10.9082C21.9944 11.0739 21.6456 11.3218 21.3619 11.6346C20.7646 12.2989 20.4508 13.1676 20.4869 14.0573C20.4583 14.9677 20.7885 15.8533 21.4074 16.5259C21.6911 16.8386 22.0398 17.0864 22.4295 17.2521C22.8192 17.4178 23.2404 17.4976 23.6642 17.4858C24.088 17.4976 24.5093 17.4178 24.8989 17.2521C25.2886 17.0864 25.6373 16.8386 25.921 16.5259C26.5406 15.8536 26.8716 14.968 26.8436 14.0573C26.8619 13.6128 26.7898 13.1691 26.6315 12.7529C26.4732 12.3366 26.232 11.9563 25.9224 11.6346C25.6295 11.321 25.2725 11.0732 24.8754 10.9077C24.4782 10.7421 24.05 10.6627 23.6194 10.6747"
                            fill="#B4B8CC"
                          />
                          <path
                            d="M36.6997 8.29764H39.6014V9.48622C40.1363 9.01425 40.7427 8.62863 41.3983 8.34347C41.9238 8.12774 42.4877 8.01896 43.0564 8.02358C43.6024 8.01916 44.144 8.12189 44.6498 8.32587C45.1557 8.52984 45.616 8.83105 46.0042 9.21216C46.695 9.89777 47.0176 10.9035 47.0176 12.2293V19.8173H44.1148V14.7889C44.1148 13.4175 44.0693 12.5032 43.9305 12.046C43.8289 11.6384 43.6038 11.2715 43.2857 10.9947C42.9519 10.7523 42.5479 10.624 42.1343 10.629C41.8534 10.6192 41.5736 10.6669 41.3121 10.7691C41.0506 10.8713 40.8131 11.0259 40.6144 11.2232C40.1548 11.6661 39.8485 12.2423 39.7394 12.8689C39.6474 13.2346 39.6014 14.0117 39.6014 15.2002V19.8173H36.6997V8.29764Z"
                            fill="#B4B8CC"
                          />
                          <path
                            d="M57.334 3.86328H60.2356V19.8171H57.334V18.5823C56.8465 19.0699 56.2676 19.4581 55.6299 19.725C55.0455 19.9645 54.4197 20.0887 53.7875 20.0908C53.0546 20.0952 52.3294 19.9424 51.6617 19.6426C50.9939 19.3429 50.3993 18.9034 49.9187 18.3543C49.3714 17.7813 48.9433 17.1069 48.6587 16.3696C48.3742 15.6323 48.2389 14.8466 48.2605 14.0573C48.2605 12.2739 48.7671 10.8117 49.8266 9.66893C50.3095 9.12572 50.9056 8.69314 51.5736 8.40111C52.2416 8.10908 52.9656 7.96458 53.6954 7.9776C54.3771 7.97727 55.0514 8.11733 55.6758 8.38892C56.3184 8.6677 56.8979 9.07191 57.3799 9.5775V3.86328H57.334ZM54.2943 10.6744C53.8705 10.6627 53.4492 10.7424 53.0595 10.9081C52.6699 11.0739 52.3211 11.3217 52.0374 11.6343C51.4401 12.2987 51.1263 13.1674 51.1624 14.0571C51.134 14.9676 51.4645 15.8532 52.0836 16.5257C52.3747 16.8291 52.7248 17.0706 53.1127 17.2357C53.5007 17.4007 53.9183 17.4858 54.3404 17.4858C54.7625 17.4858 55.1802 17.4007 55.5681 17.2357C55.9561 17.0706 56.3062 16.8291 56.5972 16.5257C57.2161 15.8532 57.5464 14.9677 57.518 14.0573C57.5363 13.6128 57.4642 13.1691 57.3059 12.7529C57.1476 12.3366 56.9064 11.9563 56.5968 11.6346C56.3039 11.321 55.9469 11.0732 55.5498 10.9077C55.1526 10.7421 54.7244 10.6627 54.2938 10.6747"
                            fill="#B4B8CC"
                          />
                          <path
                            d="M73.8224 14.8803H64.4726C64.5842 15.6484 64.9779 16.3485 65.5781 16.8459C66.1767 17.3487 66.9137 17.5774 67.8349 17.5774C68.3573 17.5895 68.8765 17.4943 69.36 17.2976C69.8436 17.1009 70.2808 16.8071 70.6444 16.4346L73.0855 17.5774C72.5359 18.4028 71.7721 19.0658 70.8746 19.4963C69.9221 19.932 68.8834 20.1507 67.8346 20.1363C65.9923 20.1363 64.5186 19.5877 63.367 18.4449C62.2154 17.3022 61.6631 15.886 61.6631 14.1489C61.6631 12.4117 62.2158 10.9489 63.3672 9.7605C63.9241 9.19641 64.5914 8.75131 65.328 8.45258C66.0646 8.15384 66.855 8.00777 67.6506 8.02334C69.493 8.02334 70.9667 8.61752 72.1183 9.7605C73.2699 10.9035 73.8224 12.4576 73.8224 14.3776V14.8803ZM70.9205 12.6404C70.739 12.0011 70.3299 11.4488 69.7692 11.0861C69.1918 10.6794 68.4964 10.4708 67.7887 10.4919C67.0242 10.4733 66.2764 10.7153 65.6699 11.1775C65.3015 11.4518 64.933 11.9546 64.6107 12.686H70.9205V12.6404Z"
                            fill="#B4B8CC"
                          />
                          <path
                            d="M73.684 8.29736H77.0453L79.3483 11.4516L81.606 8.29736H84.9221L81.0073 13.738L85.475 19.8179H82.0666L79.303 16.0704L76.5856 19.8179H73.2695L77.6451 13.7831L73.684 8.29736Z"
                            fill="#B4B8CC"
                          />
                          <path
                            d="M8.55813 4.27466H11.5978L17.6316 19.8628H14.5457L13.3019 16.663H6.89998L5.61031 19.8628H2.52441L8.55813 4.27466ZM10.1242 8.38875L8.0061 13.7373H12.1967L10.1242 8.38875Z"
                            fill="#B4B8CC"
                          />
                          <path
                            d="M31.6792 3.86328V6.51473H34.5809L31.6792 8.0232V19.8171H34.627V3.86328H31.6792Z"
                            fill="#B4B8CC"
                          />
                        </symbol>


<symbol id="news__ico02"  xmlns="http://www.w3.org/2000/svg" width="38" height="22" viewBox="0 0 38 22" fill="none">
<path d="M0.942383 13.285H2.51512L1.88687 4.57324H1.68736L0.942383 13.285Z" fill="#B4B8CC"/>
<path d="M8.98021 17.2008C8.98021 18.5096 8.60878 18.708 7.83621 18.708H7.12094V3.29411H7.83621C8.60878 3.29411 8.98021 3.49253 8.98021 4.8013V17.2008ZM7.75131 0.875H4.11768L6.43327 21.125H8.40927C10.7546 21.125 12.0132 19.3898 12.0132 17.4562V5.45357C12.0132 1.9009 10.7546 0.877111 7.75131 0.875Z" fill="#B4B8CC"/>
<path d="M0.655837 15.9299L0 21.1249H3.37257L2.80163 15.9299H0.655837Z" fill="#B4B8CC"/>
<path d="M22.4427 4.57324L21.6978 13.2871L23.2705 13.285L22.6422 4.57324H22.4427Z" fill="#B4B8CC"/>
<path d="M22.4427 4.57324L21.6978 13.2871L23.2705 13.285L22.6422 4.57324H22.4427Z" fill="#B4B8CC"/>
<path d="M14.9355 3.29419V10.9441C15.8227 10.9441 16.7948 10.8302 16.7948 10.0343V5.22779C16.7948 3.35118 16.1644 3.29419 14.9355 3.29419Z" fill="#B4B8CC"/>
<path d="M22.4427 4.57324L21.6978 13.2871L23.2705 13.285L22.6422 4.57324H22.4427Z" fill="#B4B8CC"/>
<path d="M21.4133 15.9299L20.7554 21.1249H24.1279L23.557 15.9299H21.4133Z" fill="#B4B8CC"/>
<path d="M14.9355 13.361V21.1249H18.0089L19.0446 12.0818C18.2572 13.0507 16.8818 13.361 14.9355 13.361Z" fill="#B4B8CC"/>
<path d="M34.6575 15.6663V17.8004C34.6575 18.8242 34.3434 19.0522 33.7428 19.0522C33.1145 19.0522 32.6624 18.8242 32.6624 17.8025V14.4736C32.6624 12.426 27.7723 8.04586 27.7723 6.59566V4.09212C27.7723 3.06833 28.2223 2.84035 28.8526 2.84035C29.3153 2.84035 29.7674 3.06833 29.7674 4.09212V6.73709C29.7674 10.0343 34.6575 12.8207 34.6575 15.6663ZM37.5526 8.10074V3.83459C37.5526 2.55326 37.0623 1.71312 36.3428 1.1875C36.0626 0.982743 35.723 0.877197 35.3749 0.877197H31.771H30.627H26.953C26.5795 0.877197 26.2102 0.986964 25.913 1.21283C25.5437 1.49147 25.2402 1.85666 25.0322 2.32528L25.8748 9.6966C27.3202 11.7822 29.6316 13.7116 29.6316 15.6663V17.7983C29.6316 18.8221 29.3175 19.0501 28.7168 19.0501C28.0886 19.0501 27.7723 18.8221 27.7723 17.7983V13.3907H26.2972L26.7387 17.2579L27.1801 21.1251H30.4105H31.9939H34.1566H35.1818C35.4662 21.1251 35.7464 21.0575 35.9947 20.9203C36.8967 20.42 37.5483 19.5292 37.5483 18.0537V14.4694C37.5483 12.4218 32.6582 8.04164 32.6582 6.59144V4.0879C32.6582 3.0641 33.0763 2.83824 33.7046 2.83824C34.2012 2.83824 34.6193 3.06622 34.6193 4.09001V8.10074H37.5526Z" fill="#B4B8CC"/>
</symbol>



<symbol id="news__ico03" xmlns="http://www.w3.org/2000/svg" width="22" height="20" viewBox="0 0 22 20" fill="none">
<path d="M11.6533 12.5081V11.0183H14.5266C14.5266 11.1644 14.5266 11.293 14.5266 11.4215C14.5266 13.0269 14.5192 14.6333 14.5322 16.2387C14.535 16.5901 14.5701 16.9499 14.6552 17.2893C14.9021 18.2742 15.7178 18.7532 16.71 18.5294C17.6533 18.3167 18.4838 17.4992 18.5467 16.4912C18.6281 15.1817 18.567 13.8639 18.567 12.51H17.1142V11.0183H20.1983V18.289H21.3682V19.7224H19.0137C18.9462 19.2979 18.8768 18.8642 18.7991 18.3778C18.7261 18.4702 18.6724 18.5294 18.629 18.596C17.8855 19.7233 16.7609 20.1931 15.4422 19.9277C14.1512 19.6669 13.2939 18.8013 13.0507 17.4826C12.9887 17.1469 12.9647 16.801 12.9619 16.4597C12.9517 15.2751 12.9582 14.0895 12.9582 12.9049V12.5081H11.6533Z" fill="#B4B8CC"/>
<path d="M19.6481 6.50996C20.0476 6.81421 20.424 7.10182 20.8217 7.40515C20.0754 8.39375 19.1191 8.98469 17.9151 9.17612C15.4339 9.57008 13.0997 7.93875 12.6262 5.47605C12.0251 2.3549 14.7319 -0.436105 17.8808 0.0568053C18.7807 0.197373 19.6287 0.468335 20.3389 1.0602C20.4471 1.1499 20.5368 1.32654 20.5414 1.46525C20.5627 2.10428 20.5507 2.74423 20.5507 3.40268H19.0479C19.0479 2.98653 19.0636 2.56945 19.0387 2.15422C19.0313 2.02937 18.9397 1.85736 18.8352 1.7991C17.4101 1.00379 15.5698 1.45046 14.7208 2.78215C13.7905 4.24146 14.1216 6.2316 15.4551 7.19338C16.6444 8.05065 18.3451 7.87309 19.3984 6.78092C19.4742 6.70231 19.5473 6.62001 19.649 6.51088L19.6481 6.50996Z" fill="#B4B8CC"/>
<path d="M12.195 0.224262V1.71964C11.8251 1.71964 11.4718 1.73814 11.1213 1.71317C10.8559 1.69467 10.7357 1.7853 10.6432 2.03777C9.81368 4.28869 8.9638 6.5313 8.13519 8.78223C8.03994 9.04117 7.92527 9.15584 7.64228 9.1281C7.29364 9.09388 6.85991 9.21688 6.61392 9.05042C6.3818 8.8932 6.33834 8.44931 6.22366 8.1284C5.50233 6.1207 4.77545 4.11484 4.07261 2.10065C3.96441 1.79085 3.81644 1.6919 3.50572 1.71409C3.14505 1.73999 2.78068 1.71964 2.4043 1.71964V0.224262C3.158 0.224262 3.89783 0.246457 4.63488 0.215014C5.01404 0.198368 5.18328 0.305643 5.3072 0.68388C5.93143 2.58431 6.59543 4.4718 7.24555 6.36391C7.27977 6.46194 7.31768 6.55904 7.38242 6.73383C7.61731 6.05873 7.82817 5.45762 8.03624 4.85466C8.53285 3.41292 9.03224 1.97118 9.5196 0.525742C9.59266 0.307492 9.68329 0.21039 9.9339 0.216863C10.6747 0.237208 11.4163 0.224262 12.1959 0.224262H12.195Z" fill="#B4B8CC"/>
<path d="M4.45468 18.3029V12.3704H3.04346V11.0276H5.75585C5.78915 11.5464 5.82336 12.0717 5.86313 12.6866C6.34864 11.9755 6.89519 11.4539 7.64519 11.1718C8.39889 10.8889 9.17294 11.0183 9.96178 10.9795V13.6401H8.49784V12.3491C7.95314 12.3408 7.48428 12.5045 7.08015 12.8337C6.39858 13.3895 6.03329 14.1099 6.02682 14.9958C6.02034 15.9807 6.02497 16.9666 6.02497 17.9514C6.02497 18.0596 6.02497 18.1688 6.02497 18.3149H9.75185V19.7215H3.04346V18.3019H4.45468V18.3029Z" fill="#B4B8CC"/>
<path d="M1.49075 19.7649H0V18.2649H1.49075V19.7649Z" fill="#B4B8CC"/>
</symbol>




<symbol id="arrow" xmlns="http://www.w3.org/2000/svg" viewBox="0 0 10 14" fill="none">
<path d="M5.94452 11.1863L3.77807 11.1863C3.61074 11.1863 3.47864 11.2366 3.38177 11.3373C3.2849 11.4379 3.23646 11.5752 3.23646 11.749L3.23646 13.4373C3.23646 13.6111 3.18802 13.7484 3.09115 13.849C2.99428 13.9497 2.86218 14 2.69485 14H0.541612C0.374284 14 0.242184 13.9497 0.14531 13.849C0.0484368 13.7484 0 13.6111 0 13.4373L0 11.749C0 11.5752 0.0484368 11.4379 0.14531 11.3373C0.242184 11.2366 0.374284 11.1863 0.541612 11.1863H1.99472C2.33818 11.1863 2.6288 11.0673 2.86658 10.8294C3.11317 10.5824 3.23646 10.2804 3.23646 9.92353L3.23646 8.94902C3.23646 8.77516 3.2849 8.63791 3.38177 8.53726C3.47864 8.4366 3.61074 8.38627 3.77807 8.38627L5.94452 8.38627C6.23514 8.38627 6.4421 8.24444 6.56539 7.96078C6.69749 7.66797 6.76354 7.34771 6.76354 7C6.76354 6.65229 6.69749 6.3366 6.56539 6.05294C6.4421 5.76928 6.23514 5.62745 5.94452 5.62745H3.77807C3.61074 5.62745 3.47864 5.57712 3.38177 5.47647C3.2849 5.37582 3.23646 5.23856 3.23646 5.06471L3.23646 4.07647C3.23646 3.71961 3.11317 3.42222 2.86658 3.18431C2.6288 2.93725 2.33818 2.81373 1.99472 2.81373L0.541612 2.81373C0.374284 2.81373 0.242184 2.7634 0.14531 2.66274C0.0484368 2.56209 0 2.42484 0 2.25098L0 0.562745C0 0.388889 0.0484368 0.251634 0.14531 0.15098C0.242184 0.0503268 0.374284 0 0.541612 0L2.69485 0C2.86218 0 2.99428 0.0503268 3.09115 0.15098C3.18802 0.251634 3.23646 0.388889 3.23646 0.562745L3.23646 2.25098C3.23646 2.42484 3.2849 2.56209 3.38177 2.66274C3.47864 2.7634 3.61074 2.81373 3.77807 2.81373L5.94452 2.81373C6.11185 2.81373 6.24395 2.86405 6.34082 2.96471C6.43769 3.06536 6.48613 3.20261 6.48613 3.37647V4.33726C6.48613 4.68497 6.60942 4.98235 6.85601 5.22941C7.1026 5.47647 7.39322 5.6 7.72787 5.6L9.45839 5.6C9.62572 5.6 9.75782 5.65033 9.85469 5.75098C9.95156 5.85163 10 5.98889 10 6.16274V7.85098C10 8.02484 9.95156 8.16209 9.85469 8.26274C9.75782 8.3634 9.62572 8.41373 9.45839 8.41373H7.72787C7.39322 8.41373 7.1026 8.53726 6.85601 8.78431C6.60942 9.03137 6.48613 9.32876 6.48613 9.67647V10.6235C6.48613 10.7974 6.43769 10.9346 6.34082 11.0353C6.24395 11.1359 6.11185 11.1863 5.94452 11.1863Z" fill="#FF450A"/>
</symbol>




<symbol id="scroll" xmlns="http://www.w3.org/2000/svg"  viewBox="0 0 64 64" fill="none">
<rect width="64" height="64" rx="16" fill="#8533FF"/>
<path d="M21.2353 34.4557L21.2353 28.823C21.2353 28.3879 21.1059 28.0445 20.8471 27.7926C20.5882 27.5407 20.2353 27.4148 19.7882 27.4148L15.4471 27.4148C15 27.4148 14.6471 27.2889 14.3882 27.037C14.1294 26.7851 14 26.4417 14 26.0066L14 20.4082C14 19.9731 14.1294 19.6297 14.3882 19.3778C14.6471 19.1259 15 19 15.4471 19L19.7882 19C20.2353 19 20.5882 19.1259 20.8471 19.3778C21.1059 19.6297 21.2353 19.9731 21.2353 20.4082L21.2353 24.1863C21.2353 25.0793 21.5412 25.8349 22.1529 26.4531C22.7882 27.0942 23.5647 27.4148 24.4824 27.4148L26.9882 27.4148C27.4353 27.4148 27.7882 27.5407 28.0471 27.7926C28.3059 28.0445 28.4353 28.3879 28.4353 28.823L28.4353 34.4557C28.4353 35.2114 28.8 35.7494 29.5294 36.07C30.2824 36.4135 31.1059 36.5852 32 36.5852C32.8941 36.5852 33.7059 36.4135 34.4353 36.07C35.1647 35.7495 35.5294 35.2114 35.5294 34.4557L35.5294 28.823C35.5294 28.3879 35.6588 28.0445 35.9176 27.7926C36.1765 27.5407 36.5294 27.4148 36.9765 27.4148L39.5176 27.4148C40.4353 27.4148 41.2 27.0942 41.8118 26.4531C42.4471 25.8349 42.7647 25.0793 42.7647 24.1863L42.7647 20.4082C42.7647 19.9731 42.8941 19.6297 43.1529 19.3778C43.4118 19.1259 43.7647 19 44.2118 19L48.5529 19C49 19 49.3529 19.1259 49.6118 19.3778C49.8706 19.6297 50 19.9731 50 20.4082L50 26.0066C50 26.4417 49.8706 26.7851 49.6118 27.037C49.3529 27.2889 49 27.4148 48.5529 27.4148L44.2118 27.4148C43.7647 27.4148 43.4118 27.5407 43.1529 27.7926C42.8941 28.0445 42.7647 28.3879 42.7647 28.823L42.7647 34.4557C42.7647 34.8908 42.6353 35.2343 42.3765 35.4861C42.1176 35.738 41.7647 35.8639 41.3176 35.8639L38.8471 35.8639C37.9529 35.8639 37.1882 36.1845 36.5529 36.8256C35.9176 37.4668 35.6 38.2224 35.6 39.0925L35.6 43.5918C35.6 44.0269 35.4706 44.3703 35.2118 44.6222C34.9529 44.8741 34.6 45 34.1529 45L29.8118 45C29.3647 45 29.0118 44.8741 28.7529 44.6222C28.4941 44.3703 28.3647 44.0269 28.3647 43.5918L28.3647 39.0925C28.3647 38.2224 28.0471 37.4668 27.4118 36.8256C26.7765 36.1845 26.0118 35.8639 25.1176 35.8639L22.6824 35.8639C22.2353 35.8639 21.8824 35.738 21.6235 35.4861C21.3647 35.2343 21.2353 34.8908 21.2353 34.4557Z" fill="white"/>
</symbol>



<symbol id="beforeIco"
    xmlns="http://www.w3.org/2000/svg"
    viewBox="0 0 72 80"
    fill="none"
    background="#ffffff"
  >
    <path
      d="M72 0V80H0V72C0 58.7452 10.7452 48 24 48C37.2548 48 48 37.2548 48 24C48 10.7452 58.7452 0 72 0Z"
      fill="#F7F8FA"
    />
  </symbol>

  <symbol id="afterIco" xmlns="http://www.w3.org/2000/svg"  viewBox="0 0 72 80" fill="none">
<path d="M0 0V80H72V72C72 58.7452 61.2548 48 48 48C34.7452 48 24 37.2548 24 24C24 10.7452 13.2548 0 0 0Z" fill="#F7F8FA"/>
</symbol>






</svg>