<svg width="128" height="80" viewBox="0 0 128 80" fill="none" xmlns="http://www.w3.org/2000/svg">
<path d="M49 80H0C13.2548 80 24 69.2548 24 56H49V80Z" fill="white"/>
<path d="M79 80H128C114.745 80 104 69.2548 104 56H79V80Z" fill="white"/>
<rect x="48" width="32" height="8" fill="#F7F8FA"/>
<rect x="28" y="4" width="72" height="72" rx="20" fill="#8533FF"/>
<rect x="28" y="4" width="72" height="72" rx="20" stroke="white" stroke-width="8"/>
<path d="M53.2353 42.4557L53.2353 36.823C53.2353 36.3879 53.1059 36.0445 52.8471 35.7926C52.5882 35.5407 52.2353 35.4148 51.7882 35.4148L47.4471 35.4148C47 35.4148 46.6471 35.2889 46.3882 35.037C46.1294 34.7851 46 34.4417 46 34.0066L46 28.4082C46 27.9731 46.1294 27.6297 46.3882 27.3778C46.6471 27.1259 47 27 47.4471 27L51.7882 27C52.2353 27 52.5882 27.1259 52.8471 27.3778C53.1059 27.6297 53.2353 27.9731 53.2353 28.4082L53.2353 32.1863C53.2353 33.0793 53.5412 33.8349 54.1529 34.4531C54.7882 35.0942 55.5647 35.4148 56.4824 35.4148L58.9882 35.4148C59.4353 35.4148 59.7882 35.5407 60.0471 35.7926C60.3059 36.0445 60.4353 36.3879 60.4353 36.823L60.4353 42.4557C60.4353 43.2114 60.8 43.7494 61.5294 44.07C62.2824 44.4135 63.1059 44.5852 64 44.5852C64.8941 44.5852 65.7059 44.4135 66.4353 44.07C67.1647 43.7494 67.5294 43.2114 67.5294 42.4557L67.5294 36.823C67.5294 36.3879 67.6588 36.0445 67.9176 35.7926C68.1765 35.5407 68.5294 35.4148 68.9765 35.4148L71.5176 35.4148C72.4353 35.4148 73.2 35.0942 73.8118 34.4531C74.4471 33.8349 74.7647 33.0793 74.7647 32.1863L74.7647 28.4082C74.7647 27.9731 74.8941 27.6297 75.1529 27.3778C75.4118 27.1259 75.7647 27 76.2118 27L80.5529 27C81 27 81.3529 27.1259 81.6118 27.3778C81.8706 27.6297 82 27.9731 82 28.4082L82 34.0066C82 34.4417 81.8706 34.7851 81.6118 35.037C81.3529 35.2889 81 35.4148 80.5529 35.4148L76.2118 35.4148C75.7647 35.4148 75.4118 35.5407 75.1529 35.7926C74.8941 36.0445 74.7647 36.3879 74.7647 36.823L74.7647 42.4557C74.7647 42.8908 74.6353 43.2343 74.3765 43.4861C74.1176 43.738 73.7647 43.8639 73.3176 43.8639L70.8471 43.8639C69.9529 43.8639 69.1882 44.1845 68.5529 44.8256C67.9176 45.4668 67.6 46.2224 67.6 47.0925L67.6 51.5918C67.6 52.0269 67.4706 52.3703 67.2118 52.6222C66.9529 52.8741 66.6 53 66.1529 53L61.8118 53C61.3647 53 61.0118 52.8741 60.7529 52.6222C60.4941 52.3703 60.3647 52.0269 60.3647 51.5918L60.3647 47.0925C60.3647 46.2224 60.0471 45.4668 59.4118 44.8256C58.7765 44.1845 58.0118 43.8639 57.1176 43.8639L54.6824 43.8639C54.2353 43.8639 53.8824 43.738 53.6235 43.4861C53.3647 43.2343 53.2353 42.8908 53.2353 42.4557Z" fill="white"/>
</svg>
